<?xml version="1.0" ?>

<!-- Uploaded to: SVG Repo, www.svgrepo.com, Generator: SVG Repo Mixer Tools -->
<svg fill="#888888" width="570px" height="800px" viewBox="0 0 32 32" xmlns="http://www.w3.org/2000/svg">

<title/>

<g data-name="Layer 2" id="Layer_2">

<path d="M29.28,12.47,18.6,3.62a2,2,0,0,0-2.17-.27,2,2,0,0,0-1.15,1.81v2A19.82,19.82,0,0,0,2,25.94a19.18,19.18,0,0,0,.25,3.11,1,1,0,0,0,.82.83h.17a1,1,0,0,0,.88-.53,17.29,17.29,0,0,1,11.16-8.68v2.16a2,2,0,0,0,1.15,1.81,2.09,2.09,0,0,0,.88.2,2,2,0,0,0,1.29-.48l4.86-4,.09-.07,5.73-4.75a2,2,0,0,0,0-3.06Zm-6.93,6.2-.09.07-5,4.1V19.42a.19.19,0,0,0,0-.08s0-.06,0-.09,0-.07-.05-.11a1.34,1.34,0,0,0-.07-.18A.57.57,0,0,0,17,18.8a.49.49,0,0,0-.12-.13,1,1,0,0,0-.17-.12l-.15-.07-.22,0-.1,0-.08,0h-.09A19.19,19.19,0,0,0,4,25.85a17.81,17.81,0,0,1,12.56-17l.05,0a1.11,1.11,0,0,0,.19-.09A1.43,1.43,0,0,0,17,8.63l.12-.14a.54.54,0,0,0,.1-.16.85.85,0,0,0,.06-.17,1.3,1.3,0,0,0,0-.21.43.43,0,0,0,0,0l0-2.74L28,14Z"/>
</g>

</svg>